<svg xmlns="http://www.w3.org/2000/svg" xmlns:xlink="http://www.w3.org/1999/xlink" aria-hidden="true" role="img" width="228px" height="228px" preserveAspectRatio="xMidYMid meet" viewBox="0 0 24 24"><circle cx="12" cy="12" r="2.197" fill="currentColor"/><path d="M21.634 6.437c-.709-1.228-2.411-1.732-4.796-1.424c-.302.04-.613.094-.93.158C15.009 2.619 13.608 1 12 1c-1.61 0-3.013 1.624-3.913 4.183c-2.738-.542-4.907-.156-5.722 1.254c-.812 1.407-.07 3.47 1.757 5.563c-1.827 2.094-2.57 4.156-1.757 5.563c.582 1.008 1.85 1.496 3.525 1.496a11.475 11.475 0 0 0 2.197-.243C8.987 21.376 10.39 23 12 23c1.607 0 3.009-1.619 3.909-4.17c.316.063.627.117.93.157a10.182 10.182 0 0 0 1.296.088c1.705 0 2.927-.52 3.5-1.512c.812-1.407.07-3.47-1.757-5.563c1.827-2.094 2.569-4.156 1.756-5.563zm-4.649-.297a9.08 9.08 0 0 1 1.16-.08c1.26 0 2.15.327 2.507.945c.504.874-.067 2.442-1.552 4.168a20.506 20.506 0 0 0-2.302-1.953a19.975 19.975 0 0 0-.547-2.936c.244-.047.5-.114.734-.144zm-3.072 9.174c-.647.373-1.284.703-1.907.993a24.552 24.552 0 0 1-1.92-.993a24.472 24.472 0 0 1-1.819-1.16a23.827 23.827 0 0 1 0-4.309a24.472 24.472 0 0 1 3.73-2.149c.627.292 1.265.615 1.916.99c.649.375 1.255.764 1.82 1.16a23.845 23.845 0 0 1 0 4.308c-.565.396-1.171.785-1.82 1.16zm1.628.335a17.876 17.876 0 0 1-.392 1.824a18.464 18.464 0 0 1-1.76-.583c.363-.187.727-.383 1.092-.594c.365-.21.717-.427 1.06-.647zm-4.924 1.244a18.413 18.413 0 0 1-1.766.581a17.86 17.86 0 0 1-.392-1.825c.344.22.696.437 1.06.647c.365.21.73.407 1.098.597zM7.074 13.25A18.386 18.386 0 0 1 5.675 12a18.389 18.389 0 0 1 1.4-1.25c-.02.41-.033.826-.033 1.25s.012.84.032 1.25zM8.46 8.352a17.867 17.867 0 0 1 .391-1.823a18.222 18.222 0 0 1 1.77.577c-.368.19-.735.387-1.1.598c-.365.21-.717.427-1.06.647zm4.93-1.242a18.488 18.488 0 0 1 1.76-.583a17.876 17.876 0 0 1 .392 1.824A26.075 26.075 0 0 0 13.39 7.11zm3.537 3.64A18.401 18.401 0 0 1 18.324 12a18.388 18.388 0 0 1-1.398 1.25c.02-.41.032-.826.032-1.25s-.012-.84-.032-1.25zM12 2.129c.998 0 2.056 1.234 2.807 3.31a20.802 20.802 0 0 0-2.809 1.011a20.52 20.52 0 0 0-2.807-1.005C9.942 3.365 11 2.129 12 2.129zM3.348 7.005c.351-.608 1.252-.934 2.52-.934a10.262 10.262 0 0 1 1.884.201a19.968 19.968 0 0 0-.55 2.948A20.489 20.489 0 0 0 4.9 11.173C3.414 9.447 2.843 7.88 3.348 7.005zm0 9.99c-.505-.874.066-2.442 1.552-4.168A20.501 20.501 0 0 0 7.2 14.78a19.944 19.944 0 0 0 .552 2.953c-2.247.429-3.898.14-4.405-.738zM12 21.87c-.999 0-2.058-1.237-2.81-3.317A20.448 20.448 0 0 0 12 17.55a20.802 20.802 0 0 0 2.806 1.01c-.75 2.076-1.81 3.31-2.807 3.31zm8.652-4.876c-.46.792-1.793 1.109-3.667.865c-.235-.03-.49-.097-.734-.144a19.976 19.976 0 0 0 .547-2.936a20.504 20.504 0 0 0 2.302-1.953c1.485 1.726 2.056 3.294 1.552 4.168z" fill="currentColor"/><circle cx="-.5" cy="2" r="1.5" fill="currentColor"><animateMotion dur="2s" repeatCount="indefinite" path="M14.75 14.1471C12.2277 15.6034 9.69019 16.4332 7.6407 16.6145C5.54599 16.7998 4.15833 16.3018 3.62324 15.375C3.08815 14.4482 3.35067 12.9974 4.55852 11.276C5.74031 9.59178 7.72768 7.80915 10.25 6.35289C12.7723 4.89662 15.3098 4.06682 17.3593 3.88549C19.454 3.70016 20.8417 4.1982 21.3768 5.125C21.9118 6.0518 21.6493 7.50256 20.4415 9.22397C19.2597 10.9082 17.2723 12.6909 14.75 14.1471Z"/></circle></svg>