<svg width="228" height="228" viewBox="0 0 228 228" fill="none" xmlns="http://www.w3.org/2000/svg">
<path d="M202.882 106.039V143.849C202.882 145.008 202.112 145.312 201.162 144.524L181.858 128.545C180.851 127.64 180.235 126.38 180.139 125.03V120.27L174.106 115.368C167.646 110.105 162.459 99.4365 162.459 91.618C162.459 83.809 167.675 81.776 174.106 87.077L180.139 91.979V87.21C180.139 86.051 180.908 85.747 181.858 86.5355L201.162 102.515C202.112 103.294 202.882 104.871 202.882 106.03V106.039ZM174.448 94.0215C171.047 91.2095 168.292 92.2925 168.292 96.425C168.292 100.557 171.047 106.181 174.448 108.993L180.139 113.61V98.6385L174.448 94.0215ZM201.419 189.373L201.542 189.278C201.668 189.173 201.786 189.059 201.894 188.936L201.932 188.898C202.044 188.76 202.146 188.614 202.236 188.461L202.302 188.338C202.373 188.209 202.433 188.076 202.483 187.939L202.521 187.844C202.577 187.673 202.618 187.498 202.644 187.321V187.188L202.673 186.932L202.701 185.487L153.083 144.827L153.292 22.1825L151.895 21.128L151.857 21.0995L151.534 20.9095C151.468 20.8715 151.401 20.8145 151.325 20.786L151.04 20.691C150.945 20.653 150.85 20.6055 150.755 20.5865L150.508 20.5485C150.385 20.5295 150.261 20.501 150.138 20.501H150.1L149.881 20.5105C149.764 20.5102 149.646 20.5197 149.53 20.539L149.245 20.6055C149.15 20.634 149.045 20.653 148.95 20.7005C148.855 20.729 148.76 20.7765 148.675 20.8145L148.399 20.957C148.354 20.9868 148.309 21.0185 148.266 21.052C148.152 21.09 148.038 21.1185 147.934 21.1755L115.216 37.5725L122.056 42.9875L122.312 138.624L72.4753 97.584L72.4468 47.7945L72.4183 3.116L72.4088 3.021C72.4031 2.90948 72.3904 2.79844 72.3708 2.6885C72.3613 2.5935 72.3518 2.4985 72.3233 2.4035L72.2473 2.1185C72.1998 2.0235 72.1713 1.9095 72.1048 1.805L72.0858 1.7195L71.9908 1.577C71.9338 1.482 71.8768 1.3775 71.8008 1.2825L71.6298 1.064C71.4235 0.836485 71.187 0.638309 70.9268 0.475C70.847 0.423325 70.7645 0.375763 70.6798 0.3325C70.5848 0.2945 70.4898 0.2375 70.3948 0.209C70.2064 0.14171 70.0125 0.0908532 69.8153 0.057L69.4828 0.019L69.2928 0L69.2073 0.0095C69.0927 0.0152667 68.9785 0.0279565 68.8653 0.0475C68.7703 0.057 68.6753 0.0665 68.5803 0.095C68.4853 0.114 68.3998 0.152 68.3048 0.1805C68.1981 0.212043 68.0934 0.250115 67.9913 0.2945L67.9058 0.3325L26.8373 20.9L26.6853 20.995C26.4144 21.1513 26.168 21.3465 25.9538 21.5745C25.7483 21.7937 25.5785 22.0437 25.4503 22.3155C25.3624 22.4994 25.2893 22.69 25.2318 22.8855C25.1763 23.087 25.1445 23.2942 25.1368 23.503C25.1273 23.56 25.1083 23.6265 25.1178 23.693L25.1748 119.719V119.909L25.1938 119.985C25.1938 120.128 25.2223 120.27 25.2508 120.403L25.2698 120.488L25.3078 120.593C25.3556 120.769 25.4192 120.941 25.4978 121.106V121.115H25.5073C25.5943 121.281 25.6927 121.439 25.8018 121.59L25.8683 121.686L25.9253 121.742C26.0161 121.851 26.1145 121.952 26.2198 122.047L26.2768 122.103C26.3148 122.132 26.3528 122.151 26.3718 122.18C26.3908 122.18 26.4003 122.208 26.4193 122.217L71.0693 159.353L70.0528 184.747V185.108L70.0908 185.345L70.1098 185.487C70.1098 185.535 70.1288 185.583 70.1478 185.63C70.1478 185.668 70.1668 185.697 70.1763 185.735L70.1858 185.782L70.2143 185.877C70.2566 186.008 70.3106 186.135 70.3758 186.257V186.276C70.4597 186.44 70.5583 186.596 70.6703 186.741L70.7273 186.818L70.7748 186.865C70.8821 186.998 70.9996 187.121 71.1263 187.235L71.1738 187.264L71.2023 187.283L71.2308 187.321L121.742 227.335C122.209 227.698 122.768 227.922 123.357 227.981C123.945 228.04 124.538 227.931 125.067 227.668L200.953 189.668L200.991 189.648C201.141 189.569 201.284 189.477 201.419 189.373V189.373ZM52.0123 104.357L36.2803 92.207V102.657L44.2983 108.214L31.0743 114.845L31.0173 25.7735L51.6893 15.4185L51.9078 38.1425L37.2208 26.4005V36.8505L51.9838 48.583L52.2118 59.812L37.0593 47.69V58.14L52.2878 70.2525L52.2308 82.441L37.2873 70.4995V80.9495L52.2973 92.8815L52.3923 104.158L52.0123 104.357ZM84.6258 161.719L34.1903 120.251L69.0363 102.8L119.472 144.267L84.6258 161.719ZM58.1683 12.179L65.1318 8.6925L65.8823 97.4225L58.9188 100.9L58.1683 12.179ZM81.8613 79.762L81.8518 64.657L94.2873 74.385L94.2968 89.4995L81.8613 79.762ZM94.2968 62.396L81.8518 52.6585V37.544L94.2873 47.2815L94.2968 62.396ZM104.671 55.252C109.487 61.389 114.418 73.3685 114.418 84.4455C114.418 95.513 109.487 99.2845 104.671 97.3845V55.252V55.252Z" fill="#56347C"/>
</svg>
